<svg xmlns="http://www.w3.org/2000/svg" width="74" height="74"><path transform="rotate(10)" fill-opacity="0.25" fill="#FFF" d="M35.46 8.077c-2.815.766-5.482 1.914-7.513 4.066-1.004 1.064-1.82 2.3-2.313 3.683-.23.65-.42 1.33-.79 1.92-.346.546-.796 1.06-1.04 1.664l-.065.215-.04.183v.16l.02.153c.07.26.16.51.28.75.31.54.69 1.01.91 1.6.44 1.59.49 3.18 1.36 4.63.9 1.5 2.06 2.63 3.34 3.8 2.52 2.3 5.27 3.95 8.23 5.6.9.5 1.8.99 2.72 1.44h-8.53v2.56c.55.11 1.12.15 1.66.28l.264.09.21.12c.1.07.19.15.277.23l.084.12.04.16.006.217c-.143 1.52-.75 3.03-1.233 4.467-.47 1.395-1.008 2.79-1.674 4.107-.716 1.41-1.52 2.77-2.36 4.11-.76 1.21-1.55 2.51-2.538 3.553l-.144.094-.15.017-.19-.063-.26-.14-.33-.237c-2.19-1.98-3.483-4.685-4.57-7.38-.543-1.37-.96-2.76-1.3-4.19-.31-1.326-.83-2.89-.402-4.24.053-.15.122-.3.204-.44l.13-.19.14-.166.16-.13.19-.092c.35-.124.72-.154 1.08-.263v-2.57h-10v2.56c.42.07.85.05 1.27.09l.31.06.29.105.28.18.253.26c1.03 1.286 1.497 2.98 1.904 4.54.442 1.7 1.032 3.357 1.653 5 1.16 3.075 2.913 6.25 5.07 8.745 2.123 2.46 5.14 4.772 8.29 5.7 3.2.94 6.85 1.465 10.144.634 2.92-.733 5.877-2.19 8.127-4.2 2.34-2.09 3.88-4.72 4.995-7.63l.87-3.3.15-.32c.223-.393.546-.7.796-1.075l.09-.193.06-.19.03-.175.01-.17-.02-.16-.033-.16c-.038-.11-.078-.22-.126-.326l-.1-.16c-.24-.285-.53-.514-.768-.8-.974-1.323-1.314-3.045-1.856-4.562-.59-1.645-1.615-3-2.83-4.24-2.46-2.523-5.75-4.24-8.72-6.07 1.84-1.15 3.72-2.26 5.21-3.863.68-.73 1.187-1.51 1.516-2.457.348-1 .316-1.99.53-3l.085-.25.116-.18.14-.12.16-.08c.17-.05.34-.09.51-.13l.16-.07V20.2h-6.34l.013 1.8c.4.08.81.076 1.21.166l.203.065.167.1.134.14.11.17.08.2c.52 1.56-.62 3.13-1.7 4.16-1.07 1.03-2.5 2.25-3.97 2.62-3.3.82-6.83-1.15-9.14-3.35-2.35-2.23-3.463-6.18-2.04-9.17 1.45-3.05 4.38-5.43 7.737-5.9 1.575-.22 3.207-.08 4.715.42 1.52.507 2.66 1.68 3.46 3.037l.106.28-.02.2-.13.147-.21.1c-.27.08-.54.14-.81.21l-.23.09-.006 1.746h6.68l.01-1.76-.182-.05c-.17-.03-.35-.056-.53-.09l-.18-.063-.19-.11-.2-.16c-.85-.882-1.45-2.125-2.17-3.135-.83-1.19-1.78-2.06-3.01-2.845-2.35-1.51-5.33-1.65-8-1.11zm5.353 32.5c.417-.037.836-.04 1.252-.087v-2.054c1.48.588 2.95 1.073 4.206 2.093 1.32 1.06 2.4 2.56 3.03 4.12 1.28 3.1 1.14 6.89-.2 9.92-1.24 2.83-3.49 5.27-6.21 6.75-2.9 1.58-6.73 1.53-9.84.73-1.47-.38-2.62-1.18-3.87-1.99 1.14-1.34 2.23-2.55 3.08-4.1.85-1.54 1.61-3.13 2.33-4.74.82-1.84 1.41-3.82 2.09-5.72.49-1.35.95-2.78 1.94-3.84.37-.39.84-.69 1.33-.9l.29-.1c.2-.05.4-.08.61-.1z"/></svg>